<svg xmlns="http://www.w3.org/2000/svg" width="80" height="76" viewBox="0 0 80 76">
  <metadata><?xpacket begin="﻿" id="W5M0MpCehiHzreSzNTczkc9d"?>
<x:xmpmeta xmlns:x="adobe:ns:meta/" x:xmptk="Adobe XMP Core 5.6-c140 79.160451, 2017/05/06-01:08:21        ">
   <rdf:RDF xmlns:rdf="http://www.w3.org/1999/02/22-rdf-syntax-ns#">
      <rdf:Description rdf:about=""/>
   </rdf:RDF>
</x:xmpmeta>
                                                                                                    
                                                                                                    
                                                                                                    
                                                                                                    
                                                                                                    
                                                                                                    
                                                                                                    
                                                                                                    
                                                                                                    
                                                                                                    
                                                                                                    
                                                                                                    
                                                                                                    
                                                                                                    
                                                                                                    
                                                                                                    
                                                                                                    
                                                                                                    
                                                                                                    
                                                                                                    
                           
<?xpacket end="w"?></metadata>
<defs>
    <style>
      .cls-1 {
        fill: #0c0b0d;
        fill-rule: evenodd;
      }
    </style>
  </defs>
  <path id="Shape_4_copy_2" data-name="Shape 4 copy 2" class="cls-1" d="M1376.62,13344.6h-0.36a10.439,10.439,0,0,1-1.8-.2c-0.19-.1-0.36-0.1-0.53-0.2a51.468,51.468,0,0,1-35.59-62.8l0.03-.2,0.36-1.2a2.662,2.662,0,0,1,3.11-1.8,6.819,6.819,0,0,1,1.34.4,50.561,50.561,0,0,1,21.98,12.3,49.919,49.919,0,0,1,9.16,11.7,43.121,43.121,0,0,1,2.26,4.4,47.511,47.511,0,0,1,2.22-4.4,42.948,42.948,0,0,1,2.47-4,2.4,2.4,0,0,1,1.67-1.1,2.651,2.651,0,0,1,1.94.4,2.6,2.6,0,0,1,.68,3.6c-0.8,1.2-1.55,2.4-2.24,3.6a50.259,50.259,0,0,0-4.16,9.6v20.8c0.49-.6.94-1.1,1.35-1.7a46.621,46.621,0,0,0,6.77-40.3,45.54,45.54,0,0,0-10.71-18.6,49.907,49.907,0,0,0-7.31,10.1,2.561,2.561,0,0,1-1.56,1.2,2.277,2.277,0,0,1-1.97-.2,2.592,2.592,0,0,1-1.03-3.5,56.054,56.054,0,0,1,9.06-12.2,9.525,9.525,0,0,0,1.02-1,2.684,2.684,0,0,1,3.56,0c0.34,0.3.68,0.7,1.04,1a51.6,51.6,0,0,1,15,36.4,51.44,51.44,0,0,1-9.5,29.9,46.47,46.47,0,0,0,25.2-52.7,47.605,47.605,0,0,0-11.08,4.9,2.279,2.279,0,0,1-1.96.3,2.38,2.38,0,0,1-1.61-1.2,2.534,2.534,0,0,1,.88-3.5,50.752,50.752,0,0,1,13.63-5.8,7.181,7.181,0,0,1,1.38-.4,2.634,2.634,0,0,1,3.08,1.8c0.14,0.4.27,0.9,0.39,1.4a51.425,51.425,0,0,1-35.68,62.8l-0.3.1a5.238,5.238,0,0,1-1.72.3h-0.47Zm0.25,0h0Zm-0.58-33.7h0Zm-28.33,6.9a46.335,46.335,0,0,0,20.28,18.8,51.091,51.091,0,0,1-7.34-15.1,55.65,55.65,0,0,1-2.15-14.7c-0.01-1.3.02-2.7,0.09-4a2.57,2.57,0,0,1,2.74-2.4,2.6,2.6,0,0,1,2.44,2.7c-0.07,1.2-.1,2.4-0.08,3.6a49.937,49.937,0,0,0,1.93,13.3,45.67,45.67,0,0,0,6.75,13.8c0.42,0.6.86,1.1,1.35,1.7v-20.8a45.96,45.96,0,0,0-30.92-30.8,46.015,46.015,0,0,0,4.91,33.9h0Z" transform="translate(-1336.56 -13268.6)"/>
</svg>
