<svg id="logo" xmlns="http://www.w3.org/2000/svg" width="80" height="76" viewBox="0 0 80 76">
  <metadata><?xpacket begin="﻿" id="W5M0MpCehiHzreSzNTczkc9d"?>
<x:xmpmeta xmlns:x="adobe:ns:meta/" x:xmptk="Adobe XMP Core 5.6-c140 79.160451, 2017/05/06-01:08:21        ">
   <rdf:RDF xmlns:rdf="http://www.w3.org/1999/02/22-rdf-syntax-ns#">
      <rdf:Description rdf:about=""/>
   </rdf:RDF>
</x:xmpmeta>
                                                                                                    
                                                                                                    
                                                                                                    
                                                                                                    
                                                                                                    
                                                                                                    
                                                                                                    
                                                                                                    
                                                                                                    
                                                                                                    
                                                                                                    
                                                                                                    
                                                                                                    
                                                                                                    
                                                                                                    
                                                                                                    
                                                                                                    
                                                                                                    
                                                                                                    
                                                                                                    
                           
<?xpacket end="w"?></metadata>
<defs>
    <style>
      .cls-1 {
        fill: #fff;
        fill-rule: evenodd;
      }
    </style>
  </defs>
  <path class="cls-1" d="M820.624,198.622l-0.367,0a8.455,8.455,0,0,1-1.8-.254c-0.19-.05-0.36-0.1-0.533-0.15a51.492,51.492,0,0,1-35.589-62.856l0.031-.112c0.122-.441.237-0.858,0.363-1.273a2.59,2.59,0,0,1,3.1-1.76c0.452,0.11.9,0.225,1.345,0.344a51.13,51.13,0,0,1,31.14,23.993c0.806,1.4,1.562,2.888,2.258,4.437,0.694-1.548,1.437-3.027,2.222-4.421,0.745-1.323,1.575-2.659,2.468-3.971a2.591,2.591,0,0,1,4.293,2.9c-0.8,1.172-1.554,2.384-2.241,3.6a50.988,50.988,0,0,0-4.163,9.6v20.848q0.738-.912,1.351-1.769a46.42,46.42,0,0,0-3.943-58.9,48.611,48.611,0,0,0-7.3,10.113,2.592,2.592,0,0,1-4.558-2.47,53.568,53.568,0,0,1,9.059-12.191c0.341-.341.677-0.67,1.016-0.993a2.6,2.6,0,0,1,3.567-.007c0.331,0.31.68,0.651,1.034,1.01a51.637,51.637,0,0,1,5.5,66.23,46.328,46.328,0,0,0,25.2-52.676A47.893,47.893,0,0,0,843,142.832a2.588,2.588,0,1,1-2.691-4.422,52.84,52.84,0,0,1,13.63-5.853c0.463-.124.922-0.24,1.38-0.348a2.592,2.592,0,0,1,3.084,1.779c0.137,0.454.268,0.917,0.388,1.375a51.489,51.489,0,0,1-35.682,62.878l-0.3.088a8.748,8.748,0,0,1-1.722.275l-0.031.01-0.261.006h-0.1C820.673,198.622,820.648,198.622,820.624,198.622Zm0.249-.006h0Zm-0.58-33.7,0.022,0Zm-28.336,6.924a46.14,46.14,0,0,0,20.286,18.728,51.345,51.345,0,0,1-7.346-15.077,55.928,55.928,0,0,1-2.144-14.735c-0.015-1.3.014-2.617,0.087-3.915a2.594,2.594,0,0,1,5.179.289c-0.068,1.2-.1,2.4-0.08,3.562a50.756,50.756,0,0,0,1.928,13.327,46.236,46.236,0,0,0,6.757,13.768c0.415,0.576.859,1.157,1.348,1.759V168.681a46.584,46.584,0,0,0-12.392-20.063,46.06,46.06,0,0,0-18.532-10.725,46.208,46.208,0,0,0,4.909,33.948h0Z" transform="translate(-780.562 -122.625)"/>
</svg>
