<?xml version="1.0" encoding="UTF-8"?>
<svg width="298px" height="80px" viewBox="0 0 298 80" version="1.1" xmlns="http://www.w3.org/2000/svg" xmlns:xlink="http://www.w3.org/1999/xlink">
    <!-- Generator: Sketch 48.2 (47327) - http://www.bohemiancoding.com/sketch -->
    <title>beeild</title>
    <desc>Created with Sketch.</desc>
    <defs></defs>
    <g id="Home" stroke="none" stroke-width="1" fill="none" fill-rule="evenodd" transform="translate(-94.000000, -182.000000)">
        <g id="beeild" transform="translate(94.000000, 182.000000)">
            <text id="Beeild" font-family="CircularStd-Bold, Circular Std" font-size="56" font-weight="bold" fill="#0F1012">
                <tspan x="94" y="60">Beeild</tspan>
            </text>
            <text id="BETA" opacity="0.605072464" font-family="CircularStd-Bold, Circular Std" font-size="16" font-weight="bold" fill="#0F1012">
                <tspan x="258" y="32">BETA</tspan>
            </text>
            <path d="M3.81726492,16.1501856 L30.8588495,1.75805828 C32.9295341,0.655994314 35.4072651,0.631719807 37.4991441,1.69300284 L66.0575599,16.1816811 C68.4761005,17.4086909 70,19.8906176 70,22.602608 L70,57.4066417 C70,60.1137944 68.4814774,62.5921493 66.069542,63.8214756 L37.660663,78.3010426 C35.5710666,79.3660776 33.0936816,79.3465947 31.0210941,78.2488272 L3.82997268,63.8467667 C1.47364034,62.5987108 1.246479e-14,60.1505964 9.76996262e-15,57.4841482 L-8.8817842e-16,22.5060571 C-2.39593861e-15,19.8447742 1.46799095,17.400521 3.81726492,16.1501856 Z" id="Rectangle-5" fill="#07CF3A"></path>
            <path d="M34.1620917,54.618182 L34.1620917,11.7264108 C34.1620917,7.74996069 37.3856414,4.52641097 41.3620915,4.52641097 C42.4940904,4.52641097 43.6101397,4.79332359 44.6196511,5.30548389 L66.0575599,16.1816811 C68.4761005,17.4086909 70,19.8906176 70,22.602608 L70,57.4066417 C70,60.1137944 68.4814774,62.5921493 66.069542,63.8214756 L37.660663,78.3010426 C35.5710666,79.3660776 33.0936816,79.3465947 31.0210941,78.2488272 L15.0944696,69.8131248 C13.0230372,68.715969 12.2332299,66.1473208 13.3303857,64.0758884 C14.0660944,62.6868688 15.509218,61.8181818 17.0810458,61.8181818 L26.9620918,61.8181818 C30.9385419,61.8181818 34.1620917,58.5946321 34.1620917,54.618182 Z" id="Rectangle-5" fill="#000000" opacity="0.26000002" style="mix-blend-mode: overlay;"></path>
        </g>
    </g>
</svg>